<svg id="Layer_1" data-name="Layer 1" xmlns="http://www.w3.org/2000/svg" viewBox="0 0 128 128"><title>PARTY HAT</title><path d="M102.7,44.433a1.75,1.75,0,0,1-1.564-.962,14.217,14.217,0,0,1,4.191-17.347,10.236,10.236,0,0,0,4.08-8.808c-.207-3.361-1.894-5.823-2.709-6.337a1.75,1.75,0,0,1,1.867-2.96c1.9,1.2,4.07,4.792,4.335,9.082a13.611,13.611,0,0,1-5.355,11.731,10.653,10.653,0,0,0-3.285,13.061,1.751,1.751,0,0,1-1.561,2.539Z" style="fill:#fd852b"/><rect x="91.255" y="15.137" width="6.348" height="6.348" transform="translate(147.934 -61.622) rotate(112.823)" style="fill:#2ec3fc"/><circle cx="103.829" cy="60.175" r="3.653" transform="translate(-15.033 43.643) rotate(-22.177)" style="fill:#f9d12f"/><path d="M25.3,67.369a1.751,1.751,0,0,1-1.564-2.534,10.748,10.748,0,0,0-3.282-13.066A13.611,13.611,0,0,1,15.1,40.038c.265-4.29,2.431-7.88,4.335-9.082a1.75,1.75,0,0,1,1.867,2.96c-.814.514-2.5,2.976-2.709,6.337a10.237,10.237,0,0,0,4.08,8.808A14.216,14.216,0,0,1,26.86,66.407,1.75,1.75,0,0,1,25.3,67.369Z" style="fill:#fd852b"/><rect x="30.397" y="38.073" width="6.348" height="6.348" transform="translate(58.567 -5.695) rotate(67.177)" style="fill:#2ec3fc"/><circle cx="24.171" cy="83.111" r="3.653" transform="translate(-61.916 74.122) rotate(-67.823)" style="fill:#f9d12f"/><path d="M64.559,18.819s-33.923,88.721-33.923,89.5c0,5.621,15.188,10.177,33.923,10.177s33.923-4.556,33.923-10.177C98.481,107.54,64.559,18.819,64.559,18.819Z" style="fill:#fd748c"/><path d="M64.559,104.828c13.433,0,25.04-2.343,30.535-5.74-1.023-2.724-2.234-5.935-3.577-9.485-6.2,2.433-15.962,4-26.958,4S43.8,92.036,37.6,89.6c-1.343,3.55-2.554,6.761-3.577,9.485C39.519,102.485,51.126,104.828,64.559,104.828Z" style="fill:#2ec3fc"/><path d="M62.026,66.956l-4.72-9.563-4.719,9.563-6.764.983-1.178,3.1,5.025,4.9-1.8,10.51,9.439-4.962,9.439,4.962-1.8-10.51,7.636-7.443Z" style="fill:#f9d12f"/><path d="M72.55,39.745l-1.393,2.822L61.69,43.943l6.85,6.677-1.617,9.429L75.391,55.6,79.4,57.7C76.991,51.386,74.643,45.229,72.55,39.745Z" style="fill:#f9d12f"/><path d="M98.481,108.323c0-.783-33.923-89.5-33.923-89.5L83.825,116.7C92.678,114.862,98.481,111.8,98.481,108.323Z" style="fill:#ec4d85"/><path d="M79.195,57.172l-.3-.8-.5-1.317-.54-1.416-.258-.676c-1.768-4.64-3.476-9.117-5.041-13.219l-1.393,2.822-1.871.272,2.848,14.47L75.391,55.6,79.4,57.7Z" style="fill:#f8b62b"/><path d="M81.229,103.511c5.987-1.016,10.849-2.559,13.864-4.423-1.023-2.724-2.234-5.935-3.577-9.485a57.043,57.043,0,0,1-12.43,3.021Z" style="fill:#1ba4fc"/><circle cx="64.559" cy="24.821" r="7.589" style="fill:#1ba4fc"/><path d="M64.483,17.236a7.58,7.58,0,0,0-4.515,13.619,7.58,7.58,0,0,0,4.515-13.619Z" style="fill:#2ec3fc"/></svg>